<?xml version="1.0" standalone="no"?>
<!DOCTYPE svg PUBLIC "-//W3C//DTD SVG 20010904//EN"
 "http://www.w3.org/TR/2001/REC-SVG-20010904/DTD/svg10.dtd">
<svg version="1.0" xmlns="http://www.w3.org/2000/svg"
 width="300.000000pt" height="200.000000pt" viewBox="0 0 300.000000 200.000000"
 preserveAspectRatio="xMidYMid meet">

<g transform="translate(0.000000,200.000000) scale(0.100000,-0.100000)"
fill="#000000" stroke="none">
<path d="M1130 1525 c0 -20 -7 -26 -37 -34 -62 -16 -701 -141 -722 -141 -12 0
-31 19 -51 51 l-33 50 -51 -7 c-28 -3 -80 -14 -116 -23 -64 -16 -65 -17 -65
-50 0 -54 20 -60 120 -34 47 12 91 20 98 17 6 -2 73 -91 147 -196 74 -105 147
-205 162 -222 l27 -31 1 88 c0 96 13 133 54 161 40 25 109 21 145 -10 38 -32
51 -77 51 -180 l0 -81 288 92 c201 65 288 97 290 108 2 9 13 19 25 22 77 22
97 54 97 160 0 121 -34 160 -137 159 l-53 0 -11 40 c-21 82 -18 79 -53 71 -86
-18 -96 -18 -96 -1 0 12 -10 16 -40 16 -36 0 -40 -3 -40 -25z m80 -154 c0
-168 -5 -194 -42 -231 -49 -49 -135 -52 -192 -7 l-29 24 31 21 c29 21 31 22
61 5 28 -16 33 -17 58 -3 l28 16 3 151 c3 164 1 159 60 162 22 1 22 0 22 -138z
m170 8 c5 -19 12 -23 34 -21 15 2 39 -4 52 -13 21 -14 24 -23 24 -80 0 -58 -3
-66 -26 -81 -14 -10 -29 -13 -33 -8 -5 5 -16 45 -26 88 -19 88 -35 87 -35 -1
0 -51 16 -82 48 -94 5 -2 13 -19 17 -36 6 -29 4 -33 -15 -33 -36 0 -85 28
-103 59 -24 40 -24 177 0 211 32 47 53 50 63 9z"/>
<path d="M2700 1468 c0 -79 -1 -81 -19 -64 -55 50 -140 19 -160 -57 -24 -99
-6 -198 43 -228 40 -25 77 -24 110 2 21 17 26 18 26 5 0 -12 10 -16 35 -16
l35 0 0 220 0 220 -35 0 -35 0 0 -82z m-18 -125 c24 -22 26 -128 1 -155 -18
-20 -63 -24 -81 -6 -16 16 -16 150 0 166 17 17 58 15 80 -5z"/>
<path d="M2860 1515 c0 -33 2 -35 35 -35 33 0 35 2 35 35 0 33 -2 35 -35 35
-33 0 -35 -2 -35 -35z"/>
<path d="M1770 1423 c-8 -3 -23 -12 -32 -21 -16 -14 -18 -13 -18 1 0 13 -9 17
-35 17 l-35 0 0 -155 0 -155 35 0 35 0 0 108 c0 93 3 111 18 125 24 22 55 21
75 -1 14 -15 17 -40 17 -125 l0 -107 40 0 40 0 0 109 c0 86 3 113 16 125 20
20 43 20 72 0 20 -14 22 -23 22 -125 l0 -109 36 0 36 0 -4 129 c-3 121 -5 131
-27 155 -31 33 -80 42 -119 22 -16 -8 -33 -23 -36 -33 -7 -16 -9 -16 -24 4
-26 33 -76 49 -112 36z"/>
<path d="M2251 1417 c-50 -18 -72 -54 -78 -128 -9 -115 30 -177 118 -186 92
-9 149 52 149 160 0 102 -37 154 -117 163 -21 2 -53 -2 -72 -9z m95 -71 c28
-21 28 -141 0 -162 -26 -19 -55 -18 -78 3 -24 22 -26 128 -1 155 19 22 52 23
79 4z"/>
<path d="M2860 1265 l0 -155 35 0 35 0 0 155 0 155 -35 0 -35 0 0 -155z"/>
<path d="M688 1109 c-29 -16 -38 -76 -38 -244 l-1 -160 -23 26 c-38 44 -61 52
-96 34 -49 -25 -42 -67 39 -232 59 -117 79 -148 125 -190 65 -60 125 -83 212
-83 109 0 195 45 236 123 20 37 23 60 25 192 1 83 -2 164 -8 182 -11 34 -18
37 -86 48 -23 4 -47 13 -54 21 -6 8 -29 14 -54 14 -26 0 -48 6 -55 15 -7 8
-27 15 -45 15 -18 0 -37 6 -43 13 -5 6 -12 56 -14 110 -2 84 -6 101 -22 113
-23 16 -73 18 -98 3z m84 -64 c5 -16 8 -93 8 -170 -2 -176 -3 -165 15 -165 11
0 15 12 15 49 0 46 17 81 39 81 27 0 40 -29 43 -90 2 -50 6 -65 18 -65 11 0
16 15 20 55 4 48 8 55 28 58 40 6 52 -14 52 -85 0 -56 2 -64 18 -61 13 2 18
16 22 58 4 49 8 55 29 58 42 6 51 -20 51 -147 -1 -134 -11 -192 -46 -242 -85
-123 -293 -110 -396 26 -46 61 -137 244 -145 289 -4 25 -1 35 11 39 17 7 30
-4 69 -63 28 -42 52 -50 61 -18 3 13 6 105 6 206 0 200 5 225 48 220 19 -2 28
-11 34 -33z"/>
<path d="M1265 977 c-107 -35 -131 -46 -133 -63 -5 -38 20 -47 79 -30 29 9 54
16 55 16 2 0 -4 -16 -12 -35 -36 -88 64 -164 139 -105 50 40 43 114 -14 149
l-31 19 52 17 c46 15 51 20 48 43 -4 39 -33 37 -183 -11z m103 -109 c7 -7 12
-21 12 -33 0 -12 -5 -26 -12 -33 -7 -7 -21 -12 -33 -12 -12 0 -26 5 -33 12 -7
7 -12 21 -12 33 0 12 5 26 12 33 7 7 21 12 33 12 12 0 26 -5 33 -12z"/>
</g>
</svg>
